PathFileType	4	(X/Y/Z)	Kaydara	
DataRate	CameraRate	NumFrames	NumMarkers	Units	OrigDataRate	OrigDataStartFrame	OrigNumFrames	
120.00	120.00	4	72	mm	120.00	1	261	
Frame#	Time	Hips			RightUpLeg			RightLeg			RightFoot			RightFoot_End			LeftUpLeg			LeftLeg			LeftFoot			LeftFoot_End			Spine			Spine1			Spine2			Spine3			Neck			Head			Head_End			RightShoulder			RightArm			RightForeArm			RightHand			RightHandThumb1			RightHandThumb2			RightHandThumb3			RightHandThumb3_End			RightInHandIndex			RightHandIndex1			RightHandIndex2			RightHandIndex3			RightHandIndex3_End			RightInHandMiddle			RightHandMiddle1			RightHandMiddle2			RightHandMiddle3			RightHandMiddle3_End			RightInHandRing			RightHandRing1			RightHandRing2			RightHandRing3			RightHandRing3_End			RightInHandPinky			RightHandPinky1			RightHandPinky2			RightHandPinky3			RightHandPinky3_End			LeftShoulder			LeftArm			LeftForeArm			LeftHand			LeftHandThumb1			LeftHandThumb2			LeftHandThumb3			LeftHandThumb3_End			LeftInHandIndex			LeftHandIndex1			LeftHandIndex2			LeftHandIndex3			LeftHandIndex3_End			LeftInHandMiddle			LeftHandMiddle1			LeftHandMiddle2			LeftHandMiddle3			LeftHandMiddle3_End			LeftInHandRing			LeftHandRing1			LeftHandRing2			LeftHandRing3			LeftHandRing3_End			LeftInHandPinky			LeftHandPinky1			LeftHandPinky2			LeftHandPinky3			LeftHandPinky3_End			
		X1	Y1	Z1	X2	Y2	Z2	X3	Y3	Z3	X4	Y4	Z4	X5	Y5	Z5	X6	Y6	Z6	X7	Y7	Z7	X8	Y8	Z8	X9	Y9	Z9	X10	Y10	Z10	X11	Y11	Z11	X12	Y12	Z12	X13	Y13	Z13	X14	Y14	Z14	X15	Y15	Z15	X16	Y16	Z16	X17	Y17	Z17	X18	Y18	Z18	X19	Y19	Z19	X20	Y20	Z20	X21	Y21	Z21	X22	Y22	Z22	X23	Y23	Z23	X24	Y24	Z24	X25	Y25	Z25	X26	Y26	Z26	X27	Y27	Z27	X28	Y28	Z28	X29	Y29	Z29	X30	Y30	Z30	X31	Y31	Z31	X32	Y32	Z32	X33	Y33	Z33	X34	Y34	Z34	X35	Y35	Z35	X36	Y36	Z36	X37	Y37	Z37	X38	Y38	Z38	X39	Y39	Z39	X40	Y40	Z40	X41	Y41	Z41	X42	Y42	Z42	X43	Y43	Z43	X44	Y44	Z44	X45	Y45	Z45	X46	Y46	Z46	X47	Y47	Z47	X48	Y48	Z48	X49	Y49	Z49	X50	Y50	Z50	X51	Y51	Z51	X52	Y52	Z52	X53	Y53	Z53	X54	Y54	Z54	X55	Y55	Z55	X56	Y56	Z56	X57	Y57	Z57	X58	Y58	Z58	X59	Y59	Z59	X60	Y60	Z60	X61	Y61	Z61	X62	Y62	Z62	X63	Y63	Z63	X64	Y64	Z64	X65	Y65	Z65	X66	Y66	Z66	X67	Y67	Z67	X68	Y68	Z68	X69	Y69	Z69	X70	Y70	Z70	X71	Y71	Z71	X72	Y72	Z72	

1	0.0	81.20300000000043	893.81699	129.612	136.73167000000012	877.5443199999999	56.90099	56.48062000000027	478.76352000000014	-43.26319	66.06921000000057	97.84227	-114.05000999999999	-44.95657000000028	19.3812	20.321659999999994	42.739590000000135	886.5297699999999	215.66518999999997	-45.27981	490.12902	318.3868	-123.30839000000014	56.08358999999999	375.23921000000007	-268.8769400000001	-21.962670000000003	279.02491999999995	7.5338599999995495	1005.4398499999999	78.98338999999999	-59.619479999999385	1057.059	31.53406	-133.6958599999998	1103.2139	-19.587529999999997	-210.53503	1134.27032	-70.34767000000001	-292.79002000000037	1169.62378	-122.98229999999998	-368.1294799999996	1201.2792900000002	-169.81689	-507.2842899999996	1278.74929	-178.45346	-252.4717300000002	1147.6050699999998	-132.70941	-226.17374000000018	1071.40079	-231.35829000000004	-253.48093999999946	825.2811800000001	-136.17372999999998	-278.48387	570.4169799999999	-92.42761999999999	-301.56200999999965	542.15168	-108.71853999999998	-327.96267999999964	519.1700299999999	-97.26842000000002	-343.63011000000006	502.50157	-85.81441	-354.36618	488.03774	-73.28852	-293.0408299999999	535.8813999999999	-99.62925	-309.0844099999995	486.25365	-89.53477000000001	-325.03105999999934	458.6435	-72.40678999999999	-338.53899999999976	449.67175	-59.83084000000001	-352.1437399999995	447.77259	-48.121570000000006	-285.3171600000005	536.13186	-90.03493	-296.7864900000004	487.85995	-75.00239	-313.1222600000001	457.93445999999994	-55.06653	-328.90796000000046	447.20766	-39.29626999999998	-343.54551999999967	445.17693	-26.193579999999997	-279.38785000000007	537.4906999999998	-83.59197	-284.33488000000034	495.16165000000007	-64.75456	-297.4670900000001	469.36263999999994	-46.12786	-312.1062499999998	459.16671999999994	-30.252079999999992	-325.59090000000015	457.32885	-17.61755000000001	-272.58651999999984	541.1605800000001	-75.84543999999998	-272.72425999999996	504.2993999999999	-54.050070000000005	-281.4932799999997	484.26905000000005	-37.26510000000002	-291.32618	477.13615000000004	-24.780960000000007	-302.78510000000006	475.68308999999994	-13.06837999999999	-279.08839999999964	1166.7915	-77.46608999999998	-294.04295	1154.88997	49.71637	-220.35815999999977	907.7691699999999	-9.979279999999989	-163.89420000000064	661.09654	-68.74332	-175.9490399999995	638.0325399999999	-99.06911999999998	-160.01890999999978	617.06753	-124.81706000000001	-146.3700399999998	601.0539900000001	-139.36955999999998	-132.8057400000007	586.4949999999999	-148.61125	-170.06695000000036	629.7051499999998	-89.55082999999999	-160.61884999999984	581.44316	-109.64367999999999	-142.44572999999946	553.9699099999998	-124.64175	-127.5957699999999	545.14124	-135.71625000000003	-112.9086900000002	543.3996200000001	-146.06319	-162.89500000000044	627.8309899999999	-79.71114	-149.80360999999994	579.74223	-93.98652000000001	-129.04297000000042	549.68033	-108.99016000000003	-110.68066999999974	538.98902	-121.69745	-94.39335000000028	537.064	-132.70108999999997	-158.16831000000002	627.6575700000001	-72.21825999999999	-142.62289000000055	584.1731699999999	-78.42441	-123.59665000000041	557.9628399999999	-90.08711000000001	-105.39022999999997	547.6458499999999	-101.59312	-89.84169999999995	545.8337799999999	-111.58333999999999	-152.21291999999994	629.4932400000001	-63.223899999999986	-134.61304000000018	590.4542299999999	-63.28235000000001	-117.99183999999968	569.6433	-70.38774999999998	-104.04169000000002	562.2038300000002	-77.69977	-89.88245000000006	560.6480000000001	-85.92765
2	0.008	81.20300000000043	893.81699	129.612	137.0248899999997	877.6595399999999	57.100089999999994	56.31169999999929	479.0065800000001	-43.2015	65.58705999999984	98.06135999999998	-113.90099999999998	-45.40176999999949	19.61172	20.507870000000004	42.401130000000194	886.4022900000001	215.50219999999996	-45.851160000000164	490.38512	319.4956	-123.99626999999964	56.38424	376.52782	-269.5113599999995	-21.765020000000003	280.31625999999994	7.698250000000371	1005.4834000000001	78.8407	-59.363649999999325	1057.1624699999995	31.327320000000004	-133.35771999999997	1103.3891900000003	-19.848570000000002	-210.14654999999948	1134.5226000000002	-70.63771	-292.34464000000025	1169.9532000000002	-123.30935	-367.63342999999986	1201.67768	-170.17873999999998	-506.72721	1279.2002700000003	-179.31217999999998	-252.02005000000008	1147.9405599999998	-133.02408000000003	-225.6782800000001	1072.1767000000002	-231.99996	-252.7876299999998	825.98889	-136.93528000000003	-278.7283299999999	571.1113500000001	-93.81748	-301.7802899999997	542.94941	-110.32305000000001	-328.3091599999998	520.00622	-99.09421000000002	-344.08871	503.34826000000004	-87.77968999999999	-354.93781000000035	488.87924999999996	-75.3576	-293.3305700000001	536.63293	-101.19909999999999	-309.5631999999996	487.0204900000001	-91.33420999999998	-325.68462	459.40661	-74.3767	-339.2916500000001	450.43672000000004	-61.906679999999994	-352.97194000000036	448.54192000000006	-50.285070000000005	-285.66456000000017	536.83789	-91.55758000000002	-297.34943999999996	488.55631000000005	-76.72344	-313.88296999999966	458.62066999999996	-56.96663000000001	-329.7915899999998	447.8932	-41.320839999999976	-344.51346999999987	445.86582999999996	-28.31244000000001	-279.77089999999953	538.1642300000001	-85.07525000000001	-284.94133000000056	495.79842999999994	-66.38102000000002	-298.25277000000006	469.98438	-47.90296000000001	-313.01415	459.78453	-32.14330000000001	-326.57980000000043	457.94826	-19.595550000000003	-273.0071600000001	541.7958799999999	-77.27795000000002	-273.3722000000007	504.87756	-55.582139999999995	-282.2944900000002	484.82568000000003	-38.904000000000025	-292.22123999999985	477.68531999999993	-26.49864000000001	-303.75462999999945	476.23102	-14.85954000000001	-278.68812999999955	1167.0626899999997	-77.78325000000001	-293.7279699999999	1154.93975	49.36824	-220.08407999999963	907.8881499999999	-10.663389999999993	-163.42574999999943	661.3766	-69.91423	-175.26632000000063	638.3805799999999	-100.37577999999999	-159.15059999999994	617.55012	-126.11742000000002	-145.3846199999998	601.6263100000001	-140.65806	-131.73306000000048	587.13871	-149.88346	-169.4055699999999	630.03817	-90.85748000000001	-159.7184299999999	581.8727500000001	-111.06786000000001	-141.39230000000043	554.50412	-126.07104000000001	-126.46318999999949	545.7568	-137.10361000000003	-111.72140000000036	544.0935000000001	-147.38540999999998	-162.27558000000045	628.15162	-80.98971000000002	-148.9737299999997	580.1503299999999	-95.36455000000001	-128.0524400000004	550.2007	-110.36958999999999	-109.59769999999935	539.6066100000002	-123.02427999999998	-93.25198	537.7668400000001	-133.95568000000003	-157.5845300000001	627.9665799999999	-73.47474999999999	-141.88112	584.5493700000001	-79.75306	-122.7216699999999	558.4348199999998	-91.41255000000001	-104.42968999999994	548.2105000000001	-102.86546	-88.82795999999962	546.4780800000001	-112.78662999999999	-151.67795999999998	629.78914	-64.44559	-133.96284000000014	590.80238	-64.55134999999999	-117.2462599999999	570.06462	-71.64691999999998	-103.23917999999958	562.69103	-78.91671	-89.03596000000016	561.20477	-87.0814
3	0.017	81.20300000000043	893.81699	129.612	137.3652600000005	877.7665800000001	57.33953	56.22874000000047	479.24963	-43.16082	64.94365000000016	98.25578	-113.66932000000001	-46.0295100000003	19.83647	20.770179999999996	42.00402000000031	886.28189	215.31119	-46.41096999999991	490.54268	320.2204899999999	-124.74905999999919	56.597460000000005	377.41123999999996	-270.2330000000002	-21.617100000000004	281.2056400000001	7.908379999999852	1005.532	78.6442	-59.04439000000002	1057.27923	31.05116	-132.9424399999998	1103.5885599999997	-20.18873	-209.67811999999958	1134.80904	-71.00474999999999	-291.81565000000046	1170.32731	-123.71181	-367.05022999999983	1202.13096	-170.61458	-506.0861300000006	1279.7276000000002	-179.99695000000003	-251.48851999999988	1148.3140699999997	-133.41464	-225.10481000000073	1072.99568	-232.71881	-252.01193000000058	826.70515	-137.86295	-278.87308999999914	571.80862	-95.42634999999999	-301.8686799999996	543.74568	-112.17735000000003	-328.5304700000006	520.8323199999999	-101.20537999999999	-344.42958999999973	504.1792300000001	-90.05222	-355.4014499999994	489.70069	-77.74964000000003	-293.4997999999996	537.38448	-103.01006000000001	-309.91643999999997	487.7822	-93.40194	-326.2232899999999	460.15835000000004	-76.63907	-339.9408400000002	451.18508999999995	-64.29319000000001	-353.70939	449.2893899999999	-52.776429999999976	-285.9035100000001	537.54503	-93.31267000000003	-297.8055800000002	489.24934	-78.69875000000002	-314.55013000000054	459.29692000000006	-59.14616000000002	-330.5962500000005	448.56254	-43.64620000000002	-345.41672000000017	446.53281	-30.750610000000023	-280.05404999999973	538.83981	-86.78410000000001	-285.45640000000003	496.43417000000005	-68.24641	-298.9603099999995	470.5994800000001	-49.937629999999984	-313.8588399999999	460.38976	-34.31402000000001	-327.5193500000005	458.54976	-21.870149999999995	-273.33883999999944	542.43423	-78.92783	-273.9453199999998	505.45667	-57.33858000000001	-283.0340299999998	485.37902999999994	-40.78172000000001	-293.06677000000036	478.22700999999995	-28.468689999999995	-304.68760999999995	476.76684	-16.917639999999977	-278.20309	1167.37837	-78.17629	-293.33811999999944	1155.0446899999997	48.94362999999999	-219.7757899999997	908.0483300000001	-11.414420000000007	-162.97497999999996	661.65439	-71.017	-174.67317000000003	638.73692	-101.59253000000002	-158.43426	618.0296499999998	-127.35616000000002	-144.58964000000014	602.1856199999999	-141.90927	-130.87864000000081	587.75936	-151.14265	-168.82297999999992	630.37479	-92.08505	-158.9695700000002	582.29991	-112.43017000000002	-140.53841999999986	555.0226499999999	-127.47105000000002	-125.55696999999964	546.3455900000001	-138.48813	-110.78057000000081	544.7495100000001	-148.73084	-161.7187300000005	628.47004	-82.20222	-148.26861999999983	580.54721	-96.70036000000002	-127.23668999999973	550.6946199999999	-111.74404	-108.72067999999945	540.18402	-124.37884000000003	-92.33802999999989	538.41718	-135.26689	-157.05000999999993	628.26953	-74.67376	-141.23284999999942	584.9082800000001	-81.05254	-121.98122000000058	558.87548	-92.74296	-103.63241999999991	548.7301799999998	-104.17522	-87.9970400000002	547.0656199999999	-114.05494999999999	-151.17475000000013	630.0740600000001	-65.62059000000002	-133.3742200000006	591.12652	-65.80568000000001	-116.59098999999969	570.4495400000001	-72.92129	-102.54591999999957	563.13134	-80.17373000000003	-88.31489000000056	561.7038899999999	-88.30039
4	0.025	81.20300000000043	893.81699	129.612	137.7196100000001	877.89064	57.58875	56.184690000000046	479.52966000000004	-43.207049999999995	62.60584000000017	98.36866	-113.05533	-48.35771999999997	19.98249	21.41142	41.58922999999959	886.14051	215.10767000000004	-46.89555999999993	490.5956	320.68872	-125.45652999999947	56.72349	378.1279	-270.9207400000005	-21.550550000000005	281.94084999999995	8.13310999999976	1005.5958700000001	78.46187999999998	-58.70315000000028	1057.4255299999998	30.794849999999997	-132.50161000000026	1103.82764	-20.5046	-209.18151000000034	1135.1451500000003	-71.34511	-291.25669000000016	1170.7633499999997	-124.08186	-366.4318000000003	1202.6550300000001	-171.0202	-505.43710999999985	1280.2696700000001	-180.70225	-250.92612999999983	1148.75289	-133.77671999999998	-224.5030399999996	1073.8699100000001	-233.3992	-251.22909999999956	827.42886	-138.88373	-278.9792800000005	572.51057	-97.15584999999999	-301.8898599999993	544.54023	-114.17605999999998	-328.68497000000025	521.64739	-103.48974999999999	-344.70728000000054	504.99338999999986	-92.51568999999999	-355.80781000000025	490.50107	-80.34546000000002	-293.60895999999957	538.13665	-104.95852	-310.19919000000027	488.5390699999999	-95.62832999999998	-326.6964399999997	460.89913999999993	-79.07965000000002	-340.5323699999999	451.91727999999995	-66.87289999999999	-354.39891999999963	450.0154099999999	-55.47533999999999	-286.09250000000065	538.2547799999999	-95.19852	-298.20704000000023	489.94072	-80.82180999999999	-315.1694200000002	459.96511	-61.49379999999999	-331.36319000000003	449.21765000000005	-46.15732	-346.2932300000002	447.17985000000004	-33.390029999999996	-280.29453999999987	539.5195600000002	-88.61833000000001	-285.93062999999984	497.0717000000001	-70.24760000000003	-299.63432999999986	471.21106999999995	-52.124849999999995	-314.68056999999953	460.9856800000001	-36.65376999999998	-328.4466000000002	459.13664999999986	-24.328090000000003	-273.6373799999992	543.0784899999999	-80.69677000000001	-274.49251000000004	506.04066	-59.219530000000006	-283.75571000000036	485.93348000000003	-42.79576	-293.9032099999995	478.7658000000001	-30.586309999999983	-305.6215599999996	477.29519	-19.135539999999992	-277.69019000000026	1167.74422	-78.5372	-292.9196400000001	1155.18883	48.54974000000001	-219.44775000000027	908.2432299999999	-12.125299999999996	-162.53123999999934	661.99194	-72.20517000000001	-174.07850999999937	639.1655000000001	-102.90592	-157.71030999999948	618.57798	-128.68369	-143.7858100000003	602.8093100000001	-143.24244999999996	-130.01690999999937	588.4390299999999	-152.47692999999998	-168.24953000000005	630.77884	-93.40702	-158.24128999999994	582.79386	-113.88835999999999	-139.70949999999993	555.60138	-128.95905	-124.67313000000013	546.98876	-139.95184999999998	-109.85644000000048	545.4539500000001	-150.1456	-161.1786200000006	628.8502200000001	-83.50493	-147.59552000000076	581.00215	-98.12553	-126.45867999999973	551.23866	-113.19868	-107.87877000000026	540.8041699999999	-125.80273000000005	-91.45317000000068	539.10357	-136.63648	-156.53735999999935	628.63028	-75.96003999999999	-140.62474999999995	585.31843	-82.43626	-121.28692000000046	559.3596699999999	-94.14903000000001	-102.87924999999996	549.28588	-105.54985999999997	-87.20480000000043	547.6826900000001	-115.37769	-150.69851999999992	630.4118699999999	-66.87880999999999	-132.83273999999983	591.49464	-67.13820999999999	-115.98905999999988	570.87112	-74.26608999999999	-101.90520000000015	563.6022499999999	-81.49288000000001	-87.64194000000043	562.22755	-89.57199999999997
